<svg xmlns:mydata="http://www.w3.org/2000/svg" mydata:contrastcolor="4d2f41" mydata:template="Contrast" mydata:presentation="2.5" mydata:layouttype="undefined" mydata:specialfontid="undefined" mydata:id1="325" mydata:id2="113" mydata:companyname="Hey" mydata:companytagline="Say Hey" version="1.1" xmlns="http://www.w3.org/2000/svg" xmlns:xlink="http://www.w3.org/1999/xlink" style="height: 113px;" viewBox="0 50 550 370"><defs><linearGradient x1="65" y1="235.0002" x2="485" y2="235.0002" gradientUnits="userSpaceOnUse" id="color-130492"><stop offset="0" stop-color="#ff9cda"></stop><stop offset="1" stop-color="#ea4492"></stop></linearGradient></defs><g fill="url(#color-130492)" fill-rule="none" stroke="none" stroke-width="1" stroke-linecap="butt" stroke-linejoin="miter" stroke-miterlimit="10" stroke-dasharray="" stroke-dashoffset="0" font-family="none" font-weight="none" font-size="none" text-anchor="none" style="mix-blend-mode: normal"><g data-paper-data="{&quot;isGlobalGroup&quot;:true,&quot;bounds&quot;:{&quot;x&quot;:65,&quot;y&quot;:164.56838456171354,&quot;width&quot;:420,&quot;height&quot;:140.86363818314103}}"><g data-paper-data="{&quot;textHeightFactor&quot;:0.43502388220075067,&quot;isSecondaryText&quot;:true}" fill-rule="nonzero" id="element-id-62365"><path d="M338.84835,283.89957c-1.49875,0.0102 -2.73751,0.41292 -3.71628,1.20817c-1.00936,0.81564 -1.55482,1.88618 -1.63639,3.2116c-0.12235,1.8454 0.63212,3.10964 2.26341,3.79275c0.80545,0.34665 1.955,0.66271 3.44865,0.94819c1.49365,0.28548 2.49536,0.53527 3.00514,0.74937c0.4486,0.19372 0.76976,0.48684 0.96348,0.87937c0.19372,0.39253 0.24469,0.7978 0.15293,1.21582c-0.30587,1.35601 -1.49875,2.03401 -3.57864,2.03401c-2.09009,0 -3.96097,-0.6933 -5.61265,-2.07989c-0.13254,0.25489 -0.33645,0.63467 -0.61173,1.13935c-0.27528,0.50468 -0.47919,0.88446 -0.61173,1.13935c2.02892,1.50894 4.29743,2.26851 6.80553,2.27871c1.3764,0 2.58457,-0.25999 3.62452,-0.77996c0.61173,-0.30587 1.13426,-0.74173 1.56757,-1.30758c0.43331,-0.56585 0.72643,-1.20053 0.87937,-1.90402c0.24469,-1.1521 0.1249,-2.1742 -0.35939,-3.06631c-0.48429,-0.89211 -1.2515,-1.53188 -2.30165,-1.91931c-0.73408,-0.26508 -1.84285,-0.54801 -3.3263,-0.84878c-1.48345,-0.30077 -2.44438,-0.5684 -2.88279,-0.8029c-0.40782,-0.20391 -0.66526,-0.48684 -0.77231,-0.84878c-0.10705,-0.36194 -0.09176,-0.71369 0.04588,-1.05524c0.13764,-0.34155 0.3492,-0.63467 0.63467,-0.87937c0.51997,-0.43841 1.27444,-0.66781 2.26341,-0.6882c0.83604,-0.0102 1.68736,0.14529 2.55399,0.46645c0.86662,0.32116 1.58031,0.72643 2.14107,1.21582l1.23876,-2.11048c-1.69246,-1.35601 -3.75196,-2.01872 -6.17851,-1.98813z" data-paper-data="{&quot;glyphName&quot;:&quot;S&quot;,&quot;glyphIndex&quot;:0,&quot;firstGlyphOfWord&quot;:true,&quot;word&quot;:1}" id="element-id-45984"></path><path d="M360.57507,284.09838c-1.00936,2.41635 -3.23199,7.7894 -6.66789,16.11917h2.73751c0.19372,-0.469 0.48684,-1.18014 0.87937,-2.13342c0.39253,-0.95328 0.68565,-1.66952 0.87937,-2.14871h6.69848c0.19372,0.469 0.48684,1.18268 0.87937,2.14107c0.39253,0.95838 0.68565,1.67207 0.87937,2.14107h2.73751c-2.5183,-6.06635 -4.74093,-11.43941 -6.66789,-16.11917zM361.75266,287.78407l2.38576,5.81147h-4.77152z" data-paper-data="{&quot;glyphName&quot;:&quot;A&quot;,&quot;glyphIndex&quot;:1,&quot;word&quot;:1}" id="element-id-56338"></path><path d="M373.67636,284.09838l6.43849,9.48186v6.6373h2.49281v-6.6373l6.4232,-9.48186h-3.13513l-4.54212,6.85141l-4.54212,-6.85141z" data-paper-data="{&quot;glyphName&quot;:&quot;Y&quot;,&quot;glyphIndex&quot;:2,&quot;lastGlyphOfWord&quot;:true,&quot;word&quot;:1}" id="element-id-70914"></path><path d="M411.10423,284.09838v16.11917h2.47752v-6.98905h7.3408v6.98905h2.47752v-16.11917h-2.47752v6.79024h-7.3408v-6.79024z" data-paper-data="{&quot;glyphName&quot;:&quot;H&quot;,&quot;glyphIndex&quot;:3,&quot;firstGlyphOfWord&quot;:true,&quot;word&quot;:2}" id="element-id-80825"></path><path d="M431.76042,284.09838v16.11917h10.58298v-2.35517h-8.09017v-4.71035h7.20316v-2.26341h-7.20316v-4.48095h8.09017v-2.30929z" data-paper-data="{&quot;glyphName&quot;:&quot;E&quot;,&quot;glyphIndex&quot;:4,&quot;word&quot;:2}" id="element-id-30621"></path><path d="M450.24496,284.09838l6.43849,9.48186v6.6373h2.49281v-6.6373l6.4232,-9.48186h-3.13513l-4.54212,6.85141l-4.54212,-6.85141z" data-paper-data="{&quot;glyphName&quot;:&quot;Y&quot;,&quot;glyphIndex&quot;:5,&quot;lastGlyphOfWord&quot;:true,&quot;word&quot;:2}" id="element-id-34233"></path><path d="M332.83419,264.10646v-1.65999h152.16581v1.65999z" data-paper-data="{&quot;isContainerTopLineAboveSecondaryText&quot;:true}" id="element-id-60913"></path></g><g data-paper-data="{&quot;isPrimaryText&quot;:true}" fill-rule="nonzero" id="element-id-24328"><path d="M427.67726,172.86667c-1.19857,-0.83379 -1.19857,-0.72956 -2.2408,-0.72956c-0.67745,0 -3.33514,-0.31267 -4.58582,-0.31267c-1.61546,0 -2.7098,0.41689 -3.96048,2.18869c-1.25068,1.71968 -14.53913,22.66854 -20.94886,32.77818c-9.69275,0.31267 -25.48256,0.52112 -30.06838,0.52112c7.24351,-11.20399 20.6883,-31.57962 21.41786,-33.03874c0.31267,-0.62534 0.469,-0.99012 0.469,-1.30279c0,-0.36478 -0.20845,-0.52112 -0.57323,-0.83379c-0.57323,-0.67745 -1.25068,-2.55347 -3.5957,-2.55347c-1.51124,0 -3.23092,0.57323 -3.75203,0.83379c-0.62534,0.41689 -14.27857,9.58853 -20.2714,9.58853c-3.23092,0 -6.09705,-0.99012 -6.09705,-2.13657c0,-0.52112 1.09434,-0.52112 1.09434,-0.99012c0,-0.31267 -0.469,-0.62534 -1.09434,-0.62534c-3.5957,0 -7.24351,2.34502 -7.24351,5.99283c0,4.4816 4.69004,7.03506 9.69275,7.03506c7.1914,0 12.40256,-3.28303 15.26869,-5.62805c-5.8365,8.28574 -12.45467,18.13483 -16.2067,24.02344c-1.09434,0 -2.03235,0.10422 -2.97036,0.10422c-3.02247,0 -7.50407,-0.36478 -10.68287,-0.469c-0.41689,0 -0.78167,-0.36478 -1.3549,-0.36478c-0.57323,0 -1.19857,0.20845 -1.19857,1.40701c-0.05211,0.57323 0.15633,1.45912 0.52112,2.81403c0.8859,3.54359 2.50136,4.63793 4.69004,5.00271c0.72956,0.15633 2.76191,0.10422 5.4196,0.20845c-4.0647,6.25339 -10.3702,15.26869 -14.27857,21.88686c-0.57323,0.93801 -2.13657,4.32526 -2.2408,5.36749c-0.05211,0.26056 -0.05211,0.52112 -0.05211,0.78167c0,1.19857 0.93801,1.87602 2.2408,1.87602c0.52112,0 0.36478,-0.31267 0.52112,-0.31267c0.15633,0 0.31267,0.31267 0.469,0.31267c0.15633,0 0.67745,0.05211 1.19857,0.05211c1.3549,0 1.30279,-0.41689 1.66757,-0.41689c0.57323,0 0.41689,0.99012 1.61546,0.99012c0.26056,0 0.469,-0.05211 0.78167,-0.10422c1.04223,-0.31267 11.41244,-18.86439 18.65595,-30.53739c3.75203,0 6.40972,0.05211 11.20399,0.05211c5.78439,0 13.23634,-0.10422 19.02073,-0.26056c-5.05482,8.23363 -14.8518,24.33611 -16.25881,27.67125c-0.31267,0.72956 -0.469,1.3549 -0.469,1.82391c0,1.30279 0.99012,1.77179 2.60558,1.77179c1.45912,0 2.44924,-0.41689 2.91825,-0.41689h0.31267c0.36478,0 0.57323,-0.15633 0.8859,-0.15633c0.26056,0 0.62534,0.15633 0.83379,0.15633c0.57323,0 0.99012,-0.36478 1.40701,-0.36478c0.26056,0 0.57323,0.15633 0.72956,0.15633c0.469,0 0.41689,-0.41689 0.52112,-0.52112c0.41689,-0.41689 13.13212,-21.78264 20.79252,-34.28942c7.60829,-12.45467 16.51937,-25.89946 22.72065,-35.5401c0.52112,-0.83379 1.09434,-1.56335 1.09434,-2.34502c0,-0.41689 -0.15633,-0.78167 -0.62534,-1.14645z" data-paper-data="{&quot;glyphName&quot;:&quot;H&quot;,&quot;glyphIndex&quot;:0,&quot;firstGlyphOfWord&quot;:true,&quot;word&quot;:1}" id="element-id-92349"></path><path d="M441.3305,207.52087c0,-2.2408 -3.43936,-3.17881 -5.26327,-3.17881c-8.85897,0 -26.16001,7.34773 -26.16001,17.61371c0,2.76191 0.26056,4.79427 3.12669,6.09705c-4.89849,1.82391 -9.95331,5.10693 -9.95331,10.89132c0,7.6604 8.12941,9.58853 14.33068,9.58853c8.44208,0 16.10248,-5.00271 21.10519,-9.06741c0.78167,-0.62534 1.82391,-1.61546 2.13657,-2.44924c0.31267,-0.8859 0.31267,-1.92813 0.31267,-2.81403c0,-0.93801 0,-4.11681 -1.3549,-4.11681c-0.41689,0 -0.8859,0.31267 -1.19857,0.52112c-4.79427,3.5957 -12.03777,10.7871 -19.64607,10.7871c-2.76191,0 -6.93084,-0.41689 -6.93084,-4.0647c0,-2.34502 8.85897,-7.24351 10.99554,-8.44208c1.61546,-0.8859 3.38725,-0.99012 4.89849,-2.2408c0.67745,-0.57323 1.82391,-1.45912 1.82391,-2.34502c0,-0.83379 -1.3549,-2.97036 -2.2408,-3.43936c-0.31267,-0.10422 -0.72956,-0.10422 -1.04223,-0.10422c-2.65769,0 -5.00271,1.71968 -7.81674,1.71968c-0.20845,0 -1.04223,0 -1.04223,-0.41689c0,-1.92813 7.13929,-6.61817 8.85897,-7.55618c1.3549,-0.78167 2.76191,-1.51124 4.27315,-2.03235c-0.10422,0.41689 -0.20845,0.83379 -0.20845,1.3549c0,1.51124 0.20845,2.34502 1.87602,2.34502c4.63793,0 9.11953,-4.01259 9.11953,-8.65052z" data-paper-data="{&quot;glyphName&quot;:&quot;e&quot;,&quot;glyphIndex&quot;:1,&quot;word&quot;:1}" id="element-id-45455"></path><path d="M455.14006,263.80138c10.21387,-10.99554 18.34328,-18.34328 29.33882,-26.78535c0.36478,-0.31267 0.52112,-1.04223 0.52112,-1.92813c0,-2.86614 -0.469,-4.9506 -1.61546,-4.9506c-0.36478,0 -0.78167,0.15633 -1.14645,0.469c-6.82662,6.20128 -14.95602,13.54901 -22.30376,19.75029c6.20128,-12.81945 21.62631,-38.09356 22.5122,-39.81325c0.469,-0.93801 0.67745,-1.40701 0.67745,-1.82391c0,-0.62534 -0.469,-0.8859 -0.99012,-1.61546c-0.62534,-0.83379 -3.49148,-1.14645 -3.96048,-1.14645c-1.92813,0 -4.0647,3.5957 -6.3055,6.93084c-7.60829,11.36032 -23.60655,25.79523 -26.36846,25.79523c-0.26056,0 -0.41689,-0.10422 -0.41689,-0.41689c0,-3.38725 13.65323,-24.85722 13.65323,-28.14025c0,-2.44924 -2.97036,-3.96048 -3.96048,-3.96048c-1.98024,0 -3.90837,6.20128 -8.80686,13.75746c-6.87873,12.611 -9.53642,14.07013 -10.16176,21.78264c-0.05211,0.20845 -0.05211,0.469 -0.05211,0.72956c0,1.3549 0.31267,3.54359 1.87602,4.58582c1.30279,0.8859 2.81403,1.40701 4.11681,1.40701h0.36478c5.8365,-0.62534 12.142,-6.82662 17.50949,-12.71523c-4.74215,8.96319 -6.93084,13.34056 -7.81674,14.64335c-1.14645,1.61546 -8.65052,7.34773 -13.02789,15.58136c-1.25068,2.34502 -2.18869,5.21116 -2.18869,7.60829c0,2.7098 1.25068,4.84638 4.79427,4.84638c0.469,0 0.93801,-0.05211 1.45912,-0.10422c5.68016,-0.72956 11.20399,-13.34056 12.29833,-14.48702z" data-paper-data="{&quot;glyphName&quot;:&quot;y&quot;,&quot;glyphIndex&quot;:2,&quot;lastGlyphOfWord&quot;:true,&quot;word&quot;:1}" id="element-id-58895"></path></g><g data-paper-data="{&quot;isIcon&quot;:&quot;true&quot;,&quot;iconType&quot;:&quot;icon&quot;,&quot;rawIconId&quot;:&quot;166030&quot;,&quot;selectedEffects&quot;:{&quot;container&quot;:&quot;&quot;,&quot;transformation&quot;:&quot;&quot;,&quot;pattern&quot;:&quot;&quot;},&quot;isDetailed&quot;:false,&quot;fillRule&quot;:&quot;evenodd&quot;,&quot;bounds&quot;:{&quot;x&quot;:65,&quot;y&quot;:164.56838456171354,&quot;width&quot;:214.43220184946972,&quot;height&quot;:140.86363818314103},&quot;iconStyle&quot;:&quot;standalone&quot;,&quot;suitableAsStandaloneIcon&quot;:true}" fill-rule="evenodd" id="element-id-84198"><g data-paper-data="{&quot;isPathIcon&quot;:true}" id="element-id-69996"><path d="M65,175.43601c35.73903,18.82202 71.47707,9.41101 107.2161,0c35.73903,-9.41201 71.47807,-18.82302 107.2161,0v23.82502c-35.73803,-18.82202 -71.47707,-9.41101 -107.2161,0c-35.73903,9.41101 -71.47707,18.82302 -107.2161,0z" id="element-id-61566"></path><path d="M65,246.91308c35.73903,18.82202 71.47707,9.41101 107.2161,0c35.73903,-9.41101 71.47807,-18.82202 107.2161,0v-23.82602c-35.73803,-18.82202 -71.47707,-9.41101 -107.2161,0c-35.73903,9.41101 -71.47707,18.82202 -107.2161,0z" id="element-id-89143"></path><path d="M172.2161,294.56513c-35.73903,9.41101 -71.47707,18.82202 -107.2161,0v-23.82602c35.73903,18.82202 71.47707,9.41101 107.2161,0c35.73903,-9.41101 71.47807,-18.82302 107.2161,0v23.82602c-35.73803,-18.82302 -71.47707,-9.41201 -107.2161,0z" id="element-id-30679"></path></g></g></g></g><g class="watermark-group" style="opacity:0.040000010281801224"><path class="watermark-path" d="M129.52,370.3a11.88,11.88,0,0,1,2.58,5.58,12,12,0,0,1,.11,3,11.81,11.81,0,0,1-.64,2.93,12.34,12.34,0,0,1-1.41,2.72,11.65,11.65,0,0,1-2.13,2.32,12,12,0,0,1-2.64,1.69,13,13,0,0,1-2.91.9,12.47,12.47,0,0,1-3,.12,12.17,12.17,0,0,1-2.93-.64,11.8,11.8,0,0,1-2.72-1.38,12.19,12.19,0,0,1-4-4.79,11.85,11.85,0,0,1-.89-2.92,12.14,12.14,0,0,1-.13-3,11.54,11.54,0,0,1,.64-2.92,11.67,11.67,0,0,1,3.5-5,11.44,11.44,0,0,1,2.67-1.69,11.64,11.64,0,0,1,2.92-.91,10.71,10.71,0,0,1,3-.12,11.68,11.68,0,0,1,5.66,2,11.7,11.7,0,0,1,2.34,2.12m-1.4,8.76a13,13,0,0,1-1.22,2.32,9.68,9.68,0,0,1-1.81,2,7.44,7.44,0,0,1-2.38,1.37,6.17,6.17,0,0,1-5.11-.46,8.73,8.73,0,0,1-3.85-4.58,6.69,6.69,0,0,1-.34-2.66,6.09,6.09,0,0,1,.77-2.47,7.15,7.15,0,0,1,1.75-2.11,9.58,9.58,0,0,1,1.09-.81,8.23,8.23,0,0,1,1.12-.63,8.14,8.14,0,0,1,1.19-.46,12.71,12.71,0,0,1,1.32-.37l2,2.38a12.83,12.83,0,0,0-1.56.17,7.86,7.86,0,0,0-1.23.32,4.5,4.5,0,0,0-1,.49,6.41,6.41,0,0,0-.93.67,4.49,4.49,0,0,0-1.15,1.39,3.87,3.87,0,0,0-.45,1.58,4.12,4.12,0,0,0,.26,1.63,6.11,6.11,0,0,0,2.36,2.82,4.43,4.43,0,0,0,1.57.53,3.91,3.91,0,0,0,1.62-.17,4.71,4.71,0,0,0,1.57-.89,10.5,10.5,0,0,0,.83-.79,5.71,5.71,0,0,0,.65-.93,10.13,10.13,0,0,0,.54-1.14,12.24,12.24,0,0,0,.44-1.49l2,2.33m-14.46,4.55a8.86,8.86,0,0,0,2.78,2.22,9,9,0,0,0,3.29.94,9.15,9.15,0,0,0,3.39-.37,8.68,8.68,0,0,0,3.11-1.69,8.8,8.8,0,0,0,2.22-2.78,9.15,9.15,0,0,0,1-3.29,8.95,8.95,0,0,0-4.83-8.76,9,9,0,0,0-6.73-.57,9,9,0,0,0-5.33,4.47,8.94,8.94,0,0,0-.57,6.71,8.76,8.76,0,0,0,1.7,3.12"></path><path class="watermark-path" d="M147,349c-.48.12-1.09.31-1.82.57a24.37,24.37,0,0,0-2.4,1A28.35,28.35,0,0,0,140,352a20.72,20.72,0,0,0-2.71,1.94c-.7.59-1.28,1.11-1.74,1.57a15.07,15.07,0,0,0-1.1,1.22,4.09,4.09,0,0,0-.59.92,2.32,2.32,0,0,0-.22.64,1.16,1.16,0,0,0,0,.47,1.83,1.83,0,0,0,.18.29,1.15,1.15,0,0,0,1,.37,5.54,5.54,0,0,0,1.51-.38q.87-.35,1.95-.9l2.26-1.18q1.2-.65,2.49-1.29c.87-.44,1.73-.83,2.59-1.17a18.94,18.94,0,0,1,2.6-.81,9.27,9.27,0,0,1,2.46-.29,6.25,6.25,0,0,1,2.24.49,5.12,5.12,0,0,1,1.89,1.47,6.35,6.35,0,0,1,1.41,2.61,6,6,0,0,1,.09,2.6,8.3,8.3,0,0,1-.9,2.52,17.79,17.79,0,0,1-1.62,2.37,23.92,23.92,0,0,1-2,2.15c-.72.67-1.41,1.29-2.09,1.87a33.79,33.79,0,0,1-5.33,3.7,32.29,32.29,0,0,1-4.91,2.28l-3.61-4.3a21.38,21.38,0,0,0,5.39-1.87,27.2,27.2,0,0,0,5.4-3.56,21.59,21.59,0,0,0,2.38-2.27,8.67,8.67,0,0,0,1.18-1.7,2.32,2.32,0,0,0,.27-1.19,1.34,1.34,0,0,0-.28-.74,1.21,1.21,0,0,0-1-.42,4.32,4.32,0,0,0-1.55.34,15.77,15.77,0,0,0-2,.88c-.72.37-1.48.77-2.27,1.21l-2.45,1.3c-.85.45-1.7.85-2.56,1.21a22.37,22.37,0,0,1-2.54.86,10,10,0,0,1-2.43.32,5.76,5.76,0,0,1-2.2-.45,5,5,0,0,1-1.89-1.45,6.12,6.12,0,0,1-1.31-2.41,6,6,0,0,1-.1-2.41,8.28,8.28,0,0,1,.81-2.38,14.06,14.06,0,0,1,1.49-2.24,22.37,22.37,0,0,1,1.85-2.05q1-1,2-1.77c.7-.59,1.44-1.15,2.23-1.7s1.62-1.06,2.44-1.53,1.63-.91,2.43-1.3,1.58-.75,2.3-1L147,349"></path><path class="watermark-path" d="M186.76,337.57l-10.6-12.63,3.92,18.24-4.66,3.91-17.27-7,10.6,12.63-4.86,4.07-15.09-18,6.59-5.54,18.69,7.52-4.15-19.71,6.57-5.52,15.09,18-4.83,4.05"></path><path class="watermark-path" d="M208.84,313.24l-10,8.42,1.16,4.82L194.56,331l-5.68-25.89,5.42-4.55,24.51,10.09-5.42,4.55-4.55-2m-11.23,3.45,6.57-5.52-8.83-3.87,2.26,9.39"></path><path class="watermark-path" d="M227.49,281.38c-.48.12-1.09.31-1.82.57a24.37,24.37,0,0,0-2.4,1,26.11,26.11,0,0,0-2.7,1.47,20.72,20.72,0,0,0-2.71,1.94c-.7.59-1.28,1.11-1.74,1.57a13.39,13.39,0,0,0-1.1,1.22,4.29,4.29,0,0,0-.59.91,2.48,2.48,0,0,0-.22.65,1.16,1.16,0,0,0,0,.47,1.83,1.83,0,0,0,.18.29,1.15,1.15,0,0,0,1,.37,5.54,5.54,0,0,0,1.51-.38q.87-.34,2-.9l2.26-1.18q1.2-.64,2.49-1.29c.87-.44,1.73-.83,2.59-1.17a18.94,18.94,0,0,1,2.6-.81,9.27,9.27,0,0,1,2.46-.29,6.08,6.08,0,0,1,2.24.49,5.09,5.09,0,0,1,1.89,1.46,6.47,6.47,0,0,1,1.41,2.61,6.07,6.07,0,0,1,.09,2.61,8.3,8.3,0,0,1-.9,2.52,16.32,16.32,0,0,1-1.63,2.36,21.41,21.41,0,0,1-2,2.16c-.72.67-1.41,1.29-2.1,1.86a33.36,33.36,0,0,1-5.32,3.71,31.92,31.92,0,0,1-4.92,2.28l-3.6-4.3a21.38,21.38,0,0,0,5.39-1.87,27.2,27.2,0,0,0,5.4-3.56,21.59,21.59,0,0,0,2.38-2.27,8.67,8.67,0,0,0,1.18-1.7A2.32,2.32,0,0,0,231,293a1.34,1.34,0,0,0-.28-.74,1.21,1.21,0,0,0-1-.42,4.32,4.32,0,0,0-1.55.34,16.54,16.54,0,0,0-2,.88c-.71.37-1.47.77-2.26,1.21l-2.46,1.3c-.84.44-1.7.85-2.55,1.21a24.53,24.53,0,0,1-2.54.86A10,10,0,0,1,214,298a5.76,5.76,0,0,1-2.2-.45,5,5,0,0,1-1.89-1.45,6.12,6.12,0,0,1-1.31-2.41,5.78,5.78,0,0,1-.1-2.41,8,8,0,0,1,.81-2.38,14.61,14.61,0,0,1,1.49-2.25,22.26,22.26,0,0,1,1.85-2q1-1,2-1.77c.7-.59,1.44-1.15,2.23-1.7s1.62-1.06,2.44-1.53,1.63-.91,2.43-1.31,1.58-.74,2.3-1l3.5,4.16"></path><path class="watermark-path" d="M261.64,274.74l-6.29-7.5L243,277.61l6.3,7.5-4.86,4.07-15.09-18,4.85-4.08,5.49,6.55L252,263.3l-5.49-6.55,4.86-4.07,15.09,18-4.86,4.08"></path><path class="watermark-path" d="M272.18,265.9l-15.09-18,4.86-4.08,15.09,18-4.86,4.08"></path><path class="watermark-path" d="M299.65,242.85l-22.51-2.18L287.51,253l-4.85,4.08-15.1-18,5.28-4.43,22.56,2.22L285,224.5l4.83-4.06,15.09,18-5.26,4.42"></path><path class="watermark-path" d="M306.68,205.52a31.88,31.88,0,0,1,5.29-3.66,34.48,34.48,0,0,1,5.14-2.35l3.69,4.39a20.77,20.77,0,0,0-2.37.61,20.47,20.47,0,0,0-2.61,1,25.12,25.12,0,0,0-2.76,1.49,23.9,23.9,0,0,0-2.8,2,20.42,20.42,0,0,0-2.8,2.77,12.77,12.77,0,0,0-1.64,2.52,7,7,0,0,0-.68,2.24,6,6,0,0,0,.66,3.64,8.16,8.16,0,0,0,.94,1.38,9.12,9.12,0,0,0,1.08,1.07,6.39,6.39,0,0,0,1.47.91,6.73,6.73,0,0,0,1.88.48,6.54,6.54,0,0,0,2.28-.18,11.67,11.67,0,0,0,2.74-1.07,19.38,19.38,0,0,0,3.18-2.22c.57-.48,1.06-.92,1.46-1.31a14.57,14.57,0,0,0,1-1.13,11.46,11.46,0,0,0,.81-1.05l.74-1.09-1.82-2.17-5.45,4.57-3.31-3.94,10.31-8.65,7.71,9.19a29,29,0,0,1-1.67,2.43q-1,1.26-2.1,2.52c-.74.84-1.5,1.65-2.3,2.44s-1.58,1.5-2.33,2.14a31,31,0,0,1-3.59,2.61,22.55,22.55,0,0,1-3.64,1.83,15.64,15.64,0,0,1-3.63.89,10.72,10.72,0,0,1-3.49-.15,10.45,10.45,0,0,1-3.28-1.33,12.54,12.54,0,0,1-3-2.67,12,12,0,0,1-2.08-3.44,10.45,10.45,0,0,1-.71-3.5,11.14,11.14,0,0,1,.51-3.51,15.72,15.72,0,0,1,1.56-3.43,21.62,21.62,0,0,1,2.42-3.28,30.3,30.3,0,0,1,3.15-3"></path><path class="watermark-path" d="M336.91,211.59l-15.1-18,4.86-4.08,11.79,14,13.13-11,3.31,3.94-18,15.1"></path><path class="watermark-path" d="M374.54,164.71a12.28,12.28,0,0,1,2.59,4.81,10.44,10.44,0,0,1,0,5,14.62,14.62,0,0,1-2.33,5,25.55,25.55,0,0,1-4.56,4.85,26.07,26.07,0,0,1-5.6,3.67,14.79,14.79,0,0,1-5.38,1.43,10.43,10.43,0,0,1-4.94-.89,13.24,13.24,0,0,1-6.87-8.18,10.48,10.48,0,0,1,0-5,14.51,14.51,0,0,1,2.36-5,25.23,25.23,0,0,1,4.57-4.89,25,25,0,0,1,5.59-3.64,14.45,14.45,0,0,1,5.35-1.43,10.31,10.31,0,0,1,4.93.92,12.22,12.22,0,0,1,4.28,3.38m-4.91,4.11a8.36,8.36,0,0,0-2-1.72,5.5,5.5,0,0,0-2.65-.85,7.72,7.72,0,0,0-3.32.57,14.49,14.49,0,0,0-4,2.52,16.72,16.72,0,0,0-2.38,2.4,10.15,10.15,0,0,0-1.39,2.24,6.71,6.71,0,0,0-.56,2.1,5.69,5.69,0,0,0,.1,1.9,6.21,6.21,0,0,0,.61,1.69,9.85,9.85,0,0,0,1,1.44,10.48,10.48,0,0,0,1.26,1.23,6.67,6.67,0,0,0,1.57.92,6.1,6.1,0,0,0,1.85.41,6.8,6.8,0,0,0,2.15-.2,11.06,11.06,0,0,0,2.45-1,17.67,17.67,0,0,0,2.77-1.94,14.39,14.39,0,0,0,3.18-3.52,7.74,7.74,0,0,0,1.14-3.17,5.54,5.54,0,0,0-.37-2.74,8.52,8.52,0,0,0-1.36-2.3"></path><path class="watermark-path" d="M382.66,141.76A32.3,32.3,0,0,1,388,138.1a34.12,34.12,0,0,1,5.15-2.35l3.69,4.4a19.62,19.62,0,0,0-2.37.6,22.08,22.08,0,0,0-2.61,1,26,26,0,0,0-2.77,1.49,23.9,23.9,0,0,0-2.8,2,21,21,0,0,0-2.8,2.78,13.19,13.19,0,0,0-1.64,2.51,7.29,7.29,0,0,0-.68,2.24,6.36,6.36,0,0,0,.06,2,5.8,5.8,0,0,0,.61,1.68,8.12,8.12,0,0,0,.93,1.38,9.16,9.16,0,0,0,1.08,1.08,6.56,6.56,0,0,0,1.48.9,6,6,0,0,0,1.87.48,6.76,6.76,0,0,0,2.28-.17,12,12,0,0,0,2.74-1.08,18.57,18.57,0,0,0,3.18-2.22c.58-.48,1.06-.92,1.46-1.31s.75-.77,1.05-1.12.57-.72.81-1.06l.73-1.09-1.82-2.17-5.45,4.57-3.3-3.94,10.3-8.65,7.71,9.19a29,29,0,0,1-1.67,2.43q-1,1.26-2.1,2.52c-.73.84-1.5,1.66-2.3,2.44s-1.57,1.5-2.33,2.14a31,31,0,0,1-3.59,2.61,22.15,22.15,0,0,1-3.64,1.83,15.56,15.56,0,0,1-3.62.89,11,11,0,0,1-3.49-.14,10.84,10.84,0,0,1-3.28-1.33,12.82,12.82,0,0,1-3-2.68,12.12,12.12,0,0,1-2.08-3.43A10.71,10.71,0,0,1,375,155a11.18,11.18,0,0,1,.51-3.51,15.51,15.51,0,0,1,1.57-3.43,21.44,21.44,0,0,1,2.42-3.28,30.19,30.19,0,0,1,3.14-3"></path><path class="watermark-path" d="M428.63,119.31a12.26,12.26,0,0,1,2.59,4.82,10.44,10.44,0,0,1,0,5,14.53,14.53,0,0,1-2.34,5,25.29,25.29,0,0,1-4.56,4.86,26,26,0,0,1-5.59,3.67,14.84,14.84,0,0,1-5.38,1.43,10.61,10.61,0,0,1-4.95-.89,12.15,12.15,0,0,1-4.3-3.37,12,12,0,0,1-2.56-4.81,10.48,10.48,0,0,1,0-5,14.39,14.39,0,0,1,2.35-5,27.89,27.89,0,0,1,10.16-8.53,14.49,14.49,0,0,1,5.36-1.43,10.27,10.27,0,0,1,4.92.92,12.21,12.21,0,0,1,4.28,3.37m-4.91,4.12a8.17,8.17,0,0,0-2-1.72,5.58,5.58,0,0,0-2.65-.86,7.86,7.86,0,0,0-3.31.58,14.49,14.49,0,0,0-4,2.52,16.21,16.21,0,0,0-2.38,2.4,9.85,9.85,0,0,0-1.4,2.24,7,7,0,0,0-.56,2.1,6,6,0,0,0,.1,1.9,6.23,6.23,0,0,0,.62,1.69,8.49,8.49,0,0,0,1,1.44,9.18,9.18,0,0,0,1.26,1.23,6.67,6.67,0,0,0,1.57.92,6,6,0,0,0,1.84.41,6.86,6.86,0,0,0,2.16-.2,11.26,11.26,0,0,0,2.45-1,17.62,17.62,0,0,0,2.76-1.94,14.67,14.67,0,0,0,3.19-3.52,7.71,7.71,0,0,0,1.13-3.17,5.53,5.53,0,0,0-.36-2.74,8.55,8.55,0,0,0-1.37-2.3"></path></g><rect data-element-id="element-id-84198" stroke-width="2" fill="transparent" class="invisible-element-box grouping-element" x="65" y="165" width="214" height="141" data-element-name="isIcon"></rect><rect data-element-id="element-id-69996" stroke-width="2" fill="transparent" class="invisible-element-box individual-element" x="65" y="165" width="214" height="141"></rect><rect data-element-id="element-id-24328" stroke-width="2" fill="transparent" class="invisible-element-box grouping-element" x="333" y="170" width="152" height="109" data-element-name="isPrimaryText"></rect><rect data-element-id="element-id-61566" stroke-width="2" fill="transparent" class="invisible-element-box individual-element" x="65" y="165" width="214" height="46"></rect><rect data-element-id="element-id-89143" stroke-width="2" fill="transparent" class="invisible-element-box individual-element" x="65" y="212" width="214" height="46"></rect><rect data-element-id="element-id-30679" stroke-width="2" fill="transparent" class="invisible-element-box individual-element" x="65" y="260" width="214" height="46"></rect><rect data-element-id="element-id-92349" stroke-width="2" fill="transparent" class="invisible-element-box individual-element" x="333" y="170" width="95" height="78"></rect><rect data-element-id="element-id-62365" stroke-width="2" fill="transparent" class="invisible-element-box grouping-element" x="333" y="262" width="152" height="38" data-element-name="isSecondaryText"></rect><rect data-element-id="element-id-58895" stroke-width="2" fill="transparent" class="invisible-element-box individual-element" x="436" y="206" width="49" height="72"></rect><rect data-element-id="element-id-45455" stroke-width="2" fill="transparent" class="invisible-element-box individual-element" x="403" y="204" width="38" height="44"></rect><rect data-element-id="element-id-60913" stroke-width="2" fill="transparent" class="invisible-element-box individual-element" x="333" y="262" width="152" height="2"></rect><rect data-element-id="element-id-56338" stroke-width="2" fill="transparent" class="invisible-element-box individual-element" x="354" y="284" width="16" height="16"></rect><rect data-element-id="element-id-70914" stroke-width="2" fill="transparent" class="invisible-element-box individual-element" x="374" y="284" width="15" height="16"></rect><rect data-element-id="element-id-34233" stroke-width="2" fill="transparent" class="invisible-element-box individual-element" x="450" y="284" width="15" height="16"></rect><rect data-element-id="element-id-45984" stroke-width="2" fill="transparent" class="invisible-element-box individual-element" x="333" y="284" width="13" height="17"></rect><rect data-element-id="element-id-80825" stroke-width="2" fill="transparent" class="invisible-element-box individual-element" x="411" y="284" width="12" height="16"></rect><rect data-element-id="element-id-30621" stroke-width="2" fill="transparent" class="invisible-element-box individual-element" x="432" y="284" width="11" height="16"></rect></svg>